<mxfile host="app.diagrams.net" modified="2023-06-19T07:11:00.792Z" agent="Mozilla/5.0 (Windows NT 10.0; Win64; x64) AppleWebKit/537.36 (KHTML, like Gecko) Chrome/114.0.0.0 Safari/537.36" version="21.3.7" etag="1Jbha3xNlj2gaG2_c5fu" type="github">
  <diagram name="Page-1" id="1rgy7bev9El7LhLO5BBk">
    <mxGraphModel>
      <root>
        <mxCell id="0" />
        <mxCell id="1" parent="0" />
      </root>
    </mxGraphModel>
  </diagram>
</mxfile>
